<mxfile host="app.diagrams.net" agent="Mozilla/5.0 (X11; Linux x86_64; rv:134.0) Gecko/20100101 Firefox/134.0" version="26.0.7">
  <diagram name="Page-1" id="szbxBx5beRuzrxlYbV0m">
    <mxGraphModel dx="371" dy="598" grid="1" gridSize="10" guides="1" tooltips="1" connect="1" arrows="1" fold="1" page="1" pageScale="1" pageWidth="850" pageHeight="1100" math="0" shadow="0">
      <root>
        <mxCell id="0" />
        <mxCell id="1" parent="0" />
        <mxCell id="-w7tROycFm1QyogT2TyT-1" value="" style="rounded=0;whiteSpace=wrap;html=1;" vertex="1" parent="1">
          <mxGeometry x="200" y="350" width="480" height="40" as="geometry" />
        </mxCell>
        <mxCell id="-w7tROycFm1QyogT2TyT-4" value="" style="rounded=0;whiteSpace=wrap;html=1;" vertex="1" parent="1">
          <mxGeometry x="160" y="350" width="40" height="40" as="geometry" />
        </mxCell>
        <mxCell id="-w7tROycFm1QyogT2TyT-6" value="&lt;font style=&quot;font-size: 24px;&quot;&gt;0&lt;/font&gt;" style="text;html=1;align=center;verticalAlign=middle;whiteSpace=wrap;rounded=0;" vertex="1" parent="1">
          <mxGeometry x="640" y="390" width="60" height="30" as="geometry" />
        </mxCell>
        <mxCell id="-w7tROycFm1QyogT2TyT-9" value="&lt;font style=&quot;font-size: 24px;&quot;&gt;30&lt;/font&gt;" style="text;html=1;align=center;verticalAlign=middle;whiteSpace=wrap;rounded=0;" vertex="1" parent="1">
          <mxGeometry x="190" y="390" width="60" height="30" as="geometry" />
        </mxCell>
        <mxCell id="-w7tROycFm1QyogT2TyT-10" value="&lt;div&gt;&lt;font style=&quot;font-size: 24px;&quot;&gt;31&lt;/font&gt;&lt;/div&gt;" style="text;html=1;align=center;verticalAlign=middle;whiteSpace=wrap;rounded=0;" vertex="1" parent="1">
          <mxGeometry x="150" y="390" width="60" height="30" as="geometry" />
        </mxCell>
        <mxCell id="-w7tROycFm1QyogT2TyT-11" value="" style="rounded=0;whiteSpace=wrap;html=1;" vertex="1" parent="1">
          <mxGeometry x="160" y="160" width="520" height="40" as="geometry" />
        </mxCell>
        <mxCell id="-w7tROycFm1QyogT2TyT-12" value="&lt;font style=&quot;font-size: 24px;&quot;&gt;0&lt;/font&gt;" style="text;html=1;align=center;verticalAlign=middle;whiteSpace=wrap;rounded=0;" vertex="1" parent="1">
          <mxGeometry x="640" y="200" width="60" height="30" as="geometry" />
        </mxCell>
        <mxCell id="-w7tROycFm1QyogT2TyT-13" value="&lt;div&gt;&lt;font style=&quot;font-size: 24px;&quot;&gt;31&lt;/font&gt;&lt;/div&gt;" style="text;html=1;align=center;verticalAlign=middle;whiteSpace=wrap;rounded=0;" vertex="1" parent="1">
          <mxGeometry x="150" y="200" width="60" height="30" as="geometry" />
        </mxCell>
        <mxCell id="-w7tROycFm1QyogT2TyT-20" value="" style="edgeStyle=orthogonalEdgeStyle;rounded=0;orthogonalLoop=1;jettySize=auto;html=1;entryX=0.5;entryY=0;entryDx=0;entryDy=0;" edge="1" parent="1" source="-w7tROycFm1QyogT2TyT-18" target="-w7tROycFm1QyogT2TyT-4">
          <mxGeometry relative="1" as="geometry">
            <mxPoint x="160" y="330" as="targetPoint" />
          </mxGeometry>
        </mxCell>
        <mxCell id="-w7tROycFm1QyogT2TyT-18" value="&lt;font style=&quot;font-size: 18px;&quot;&gt;OOC&lt;/font&gt;" style="text;html=1;align=center;verticalAlign=middle;resizable=0;points=[];autosize=1;strokeColor=none;fillColor=none;" vertex="1" parent="1">
          <mxGeometry x="150" y="280" width="60" height="40" as="geometry" />
        </mxCell>
        <mxCell id="-w7tROycFm1QyogT2TyT-23" value="" style="rounded=0;whiteSpace=wrap;html=1;" vertex="1" parent="1">
          <mxGeometry x="240" y="550" width="440" height="40" as="geometry" />
        </mxCell>
        <mxCell id="-w7tROycFm1QyogT2TyT-26" value="" style="rounded=0;whiteSpace=wrap;html=1;" vertex="1" parent="1">
          <mxGeometry x="160" y="550" width="40" height="40" as="geometry" />
        </mxCell>
        <mxCell id="-w7tROycFm1QyogT2TyT-27" value="" style="rounded=0;whiteSpace=wrap;html=1;" vertex="1" parent="1">
          <mxGeometry x="200" y="550" width="40" height="40" as="geometry" />
        </mxCell>
        <mxCell id="-w7tROycFm1QyogT2TyT-28" value="&lt;font style=&quot;font-size: 24px;&quot;&gt;0&lt;/font&gt;" style="text;html=1;align=center;verticalAlign=middle;whiteSpace=wrap;rounded=0;" vertex="1" parent="1">
          <mxGeometry x="640" y="590" width="60" height="30" as="geometry" />
        </mxCell>
        <mxCell id="-w7tROycFm1QyogT2TyT-30" value="&lt;font style=&quot;font-size: 24px;&quot;&gt;29&lt;/font&gt;" style="text;html=1;align=center;verticalAlign=middle;whiteSpace=wrap;rounded=0;" vertex="1" parent="1">
          <mxGeometry x="230" y="590" width="60" height="30" as="geometry" />
        </mxCell>
        <mxCell id="-w7tROycFm1QyogT2TyT-31" value="&lt;font style=&quot;font-size: 24px;&quot;&gt;30&lt;/font&gt;" style="text;html=1;align=center;verticalAlign=middle;whiteSpace=wrap;rounded=0;" vertex="1" parent="1">
          <mxGeometry x="190" y="590" width="60" height="30" as="geometry" />
        </mxCell>
        <mxCell id="-w7tROycFm1QyogT2TyT-32" value="&lt;div&gt;&lt;font style=&quot;font-size: 24px;&quot;&gt;31&lt;/font&gt;&lt;/div&gt;" style="text;html=1;align=center;verticalAlign=middle;whiteSpace=wrap;rounded=0;" vertex="1" parent="1">
          <mxGeometry x="150" y="590" width="60" height="30" as="geometry" />
        </mxCell>
        <mxCell id="-w7tROycFm1QyogT2TyT-35" value="" style="edgeStyle=orthogonalEdgeStyle;rounded=0;orthogonalLoop=1;jettySize=auto;html=1;entryX=0.5;entryY=1;entryDx=0;entryDy=0;" edge="1" parent="1" source="-w7tROycFm1QyogT2TyT-36" target="-w7tROycFm1QyogT2TyT-31">
          <mxGeometry relative="1" as="geometry" />
        </mxCell>
        <mxCell id="-w7tROycFm1QyogT2TyT-36" value="&lt;font style=&quot;font-size: 18px;&quot;&gt;Requested&lt;/font&gt;" style="text;html=1;align=center;verticalAlign=middle;resizable=0;points=[];autosize=1;strokeColor=none;fillColor=none;" vertex="1" parent="1">
          <mxGeometry x="160" y="650" width="120" height="40" as="geometry" />
        </mxCell>
        <mxCell id="-w7tROycFm1QyogT2TyT-37" value="" style="edgeStyle=orthogonalEdgeStyle;rounded=0;orthogonalLoop=1;jettySize=auto;html=1;entryX=0.5;entryY=0;entryDx=0;entryDy=0;" edge="1" parent="1" source="-w7tROycFm1QyogT2TyT-38" target="-w7tROycFm1QyogT2TyT-26">
          <mxGeometry relative="1" as="geometry">
            <mxPoint x="160" y="530" as="targetPoint" />
          </mxGeometry>
        </mxCell>
        <mxCell id="-w7tROycFm1QyogT2TyT-38" value="&lt;font style=&quot;font-size: 18px;&quot;&gt;OOC&lt;/font&gt;" style="text;html=1;align=center;verticalAlign=middle;resizable=0;points=[];autosize=1;strokeColor=none;fillColor=none;" vertex="1" parent="1">
          <mxGeometry x="150" y="480" width="60" height="40" as="geometry" />
        </mxCell>
        <mxCell id="-w7tROycFm1QyogT2TyT-39" value="" style="rounded=0;whiteSpace=wrap;html=1;" vertex="1" parent="1">
          <mxGeometry x="280" y="790" width="400" height="40" as="geometry" />
        </mxCell>
        <mxCell id="-w7tROycFm1QyogT2TyT-41" value="" style="rounded=0;whiteSpace=wrap;html=1;" vertex="1" parent="1">
          <mxGeometry x="240" y="790" width="40" height="40" as="geometry" />
        </mxCell>
        <mxCell id="-w7tROycFm1QyogT2TyT-42" value="" style="rounded=0;whiteSpace=wrap;html=1;" vertex="1" parent="1">
          <mxGeometry x="160" y="790" width="40" height="40" as="geometry" />
        </mxCell>
        <mxCell id="-w7tROycFm1QyogT2TyT-43" value="" style="rounded=0;whiteSpace=wrap;html=1;" vertex="1" parent="1">
          <mxGeometry x="200" y="790" width="40" height="40" as="geometry" />
        </mxCell>
        <mxCell id="-w7tROycFm1QyogT2TyT-44" value="&lt;font style=&quot;font-size: 24px;&quot;&gt;0&lt;/font&gt;" style="text;html=1;align=center;verticalAlign=middle;whiteSpace=wrap;rounded=0;" vertex="1" parent="1">
          <mxGeometry x="640" y="830" width="60" height="30" as="geometry" />
        </mxCell>
        <mxCell id="-w7tROycFm1QyogT2TyT-46" value="&lt;font style=&quot;font-size: 24px;&quot;&gt;29&lt;/font&gt;" style="text;html=1;align=center;verticalAlign=middle;whiteSpace=wrap;rounded=0;" vertex="1" parent="1">
          <mxGeometry x="230" y="830" width="60" height="30" as="geometry" />
        </mxCell>
        <mxCell id="-w7tROycFm1QyogT2TyT-47" value="&lt;font style=&quot;font-size: 24px;&quot;&gt;30&lt;/font&gt;" style="text;html=1;align=center;verticalAlign=middle;whiteSpace=wrap;rounded=0;" vertex="1" parent="1">
          <mxGeometry x="190" y="830" width="60" height="30" as="geometry" />
        </mxCell>
        <mxCell id="-w7tROycFm1QyogT2TyT-48" value="&lt;div&gt;&lt;font style=&quot;font-size: 24px;&quot;&gt;31&lt;/font&gt;&lt;/div&gt;" style="text;html=1;align=center;verticalAlign=middle;whiteSpace=wrap;rounded=0;" vertex="1" parent="1">
          <mxGeometry x="150" y="830" width="60" height="30" as="geometry" />
        </mxCell>
        <mxCell id="-w7tROycFm1QyogT2TyT-49" value="" style="edgeStyle=orthogonalEdgeStyle;rounded=0;orthogonalLoop=1;jettySize=auto;html=1;entryX=0.5;entryY=0;entryDx=0;entryDy=0;" edge="1" parent="1" source="-w7tROycFm1QyogT2TyT-50" target="-w7tROycFm1QyogT2TyT-41">
          <mxGeometry relative="1" as="geometry">
            <mxPoint x="320" y="770" as="targetPoint" />
          </mxGeometry>
        </mxCell>
        <mxCell id="-w7tROycFm1QyogT2TyT-50" value="&lt;font style=&quot;font-size: 18px;&quot;&gt;WasRead&lt;/font&gt;" style="text;html=1;align=center;verticalAlign=middle;resizable=0;points=[];autosize=1;strokeColor=none;fillColor=none;" vertex="1" parent="1">
          <mxGeometry x="210" y="720" width="100" height="40" as="geometry" />
        </mxCell>
        <mxCell id="-w7tROycFm1QyogT2TyT-51" value="" style="edgeStyle=orthogonalEdgeStyle;rounded=0;orthogonalLoop=1;jettySize=auto;html=1;entryX=0.5;entryY=1;entryDx=0;entryDy=0;" edge="1" parent="1" source="-w7tROycFm1QyogT2TyT-52" target="-w7tROycFm1QyogT2TyT-47">
          <mxGeometry relative="1" as="geometry" />
        </mxCell>
        <mxCell id="-w7tROycFm1QyogT2TyT-52" value="&lt;font style=&quot;font-size: 18px;&quot;&gt;Requested&lt;/font&gt;" style="text;html=1;align=center;verticalAlign=middle;resizable=0;points=[];autosize=1;strokeColor=none;fillColor=none;" vertex="1" parent="1">
          <mxGeometry x="160" y="890" width="120" height="40" as="geometry" />
        </mxCell>
        <mxCell id="-w7tROycFm1QyogT2TyT-53" value="" style="edgeStyle=orthogonalEdgeStyle;rounded=0;orthogonalLoop=1;jettySize=auto;html=1;entryX=0.5;entryY=0;entryDx=0;entryDy=0;" edge="1" parent="1" source="-w7tROycFm1QyogT2TyT-54" target="-w7tROycFm1QyogT2TyT-42">
          <mxGeometry relative="1" as="geometry">
            <mxPoint x="160" y="770" as="targetPoint" />
          </mxGeometry>
        </mxCell>
        <mxCell id="-w7tROycFm1QyogT2TyT-54" value="&lt;font style=&quot;font-size: 18px;&quot;&gt;OOC&lt;/font&gt;" style="text;html=1;align=center;verticalAlign=middle;resizable=0;points=[];autosize=1;strokeColor=none;fillColor=none;" vertex="1" parent="1">
          <mxGeometry x="150" y="720" width="60" height="40" as="geometry" />
        </mxCell>
        <mxCell id="-w7tROycFm1QyogT2TyT-56" value="&lt;font style=&quot;font-size: 18px;&quot;&gt;Page-Base-Adress&lt;/font&gt;" style="rounded=0;whiteSpace=wrap;html=1;" vertex="1" parent="1">
          <mxGeometry x="450" y="1030" width="240" height="40" as="geometry" />
        </mxCell>
        <mxCell id="-w7tROycFm1QyogT2TyT-57" value="" style="rounded=0;whiteSpace=wrap;html=1;" vertex="1" parent="1">
          <mxGeometry x="290" y="1030" width="160" height="40" as="geometry" />
        </mxCell>
        <mxCell id="-w7tROycFm1QyogT2TyT-58" value="" style="rounded=0;whiteSpace=wrap;html=1;" vertex="1" parent="1">
          <mxGeometry x="250" y="1030" width="40" height="40" as="geometry" />
        </mxCell>
        <mxCell id="-w7tROycFm1QyogT2TyT-59" value="" style="rounded=0;whiteSpace=wrap;html=1;" vertex="1" parent="1">
          <mxGeometry x="170" y="1030" width="40" height="40" as="geometry" />
        </mxCell>
        <mxCell id="-w7tROycFm1QyogT2TyT-60" value="" style="rounded=0;whiteSpace=wrap;html=1;" vertex="1" parent="1">
          <mxGeometry x="210" y="1030" width="40" height="40" as="geometry" />
        </mxCell>
        <mxCell id="-w7tROycFm1QyogT2TyT-61" value="&lt;font style=&quot;font-size: 24px;&quot;&gt;0&lt;/font&gt;" style="text;html=1;align=center;verticalAlign=middle;whiteSpace=wrap;rounded=0;" vertex="1" parent="1">
          <mxGeometry x="650" y="1070" width="60" height="30" as="geometry" />
        </mxCell>
        <mxCell id="-w7tROycFm1QyogT2TyT-62" value="&lt;font style=&quot;font-size: 24px;&quot;&gt;24&lt;/font&gt;" style="text;html=1;align=center;verticalAlign=middle;whiteSpace=wrap;rounded=0;" vertex="1" parent="1">
          <mxGeometry x="400" y="1070" width="60" height="30" as="geometry" />
        </mxCell>
        <mxCell id="-w7tROycFm1QyogT2TyT-63" value="&lt;font style=&quot;font-size: 24px;&quot;&gt;29&lt;/font&gt;" style="text;html=1;align=center;verticalAlign=middle;whiteSpace=wrap;rounded=0;" vertex="1" parent="1">
          <mxGeometry x="240" y="1070" width="60" height="30" as="geometry" />
        </mxCell>
        <mxCell id="-w7tROycFm1QyogT2TyT-64" value="&lt;font style=&quot;font-size: 24px;&quot;&gt;30&lt;/font&gt;" style="text;html=1;align=center;verticalAlign=middle;whiteSpace=wrap;rounded=0;" vertex="1" parent="1">
          <mxGeometry x="200" y="1070" width="60" height="30" as="geometry" />
        </mxCell>
        <mxCell id="-w7tROycFm1QyogT2TyT-65" value="&lt;div&gt;&lt;font style=&quot;font-size: 24px;&quot;&gt;31&lt;/font&gt;&lt;/div&gt;" style="text;html=1;align=center;verticalAlign=middle;whiteSpace=wrap;rounded=0;" vertex="1" parent="1">
          <mxGeometry x="160" y="1070" width="60" height="30" as="geometry" />
        </mxCell>
        <mxCell id="-w7tROycFm1QyogT2TyT-66" value="" style="edgeStyle=orthogonalEdgeStyle;rounded=0;orthogonalLoop=1;jettySize=auto;html=1;entryX=0.5;entryY=0;entryDx=0;entryDy=0;" edge="1" parent="1" source="-w7tROycFm1QyogT2TyT-67" target="-w7tROycFm1QyogT2TyT-58">
          <mxGeometry relative="1" as="geometry">
            <mxPoint x="330" y="1010" as="targetPoint" />
          </mxGeometry>
        </mxCell>
        <mxCell id="-w7tROycFm1QyogT2TyT-67" value="&lt;font style=&quot;font-size: 18px;&quot;&gt;WasRead&lt;/font&gt;" style="text;html=1;align=center;verticalAlign=middle;resizable=0;points=[];autosize=1;strokeColor=none;fillColor=none;" vertex="1" parent="1">
          <mxGeometry x="220" y="960" width="100" height="40" as="geometry" />
        </mxCell>
        <mxCell id="-w7tROycFm1QyogT2TyT-68" value="" style="edgeStyle=orthogonalEdgeStyle;rounded=0;orthogonalLoop=1;jettySize=auto;html=1;entryX=0.5;entryY=1;entryDx=0;entryDy=0;" edge="1" parent="1" source="-w7tROycFm1QyogT2TyT-69" target="-w7tROycFm1QyogT2TyT-64">
          <mxGeometry relative="1" as="geometry" />
        </mxCell>
        <mxCell id="-w7tROycFm1QyogT2TyT-69" value="&lt;font style=&quot;font-size: 18px;&quot;&gt;Requested&lt;/font&gt;" style="text;html=1;align=center;verticalAlign=middle;resizable=0;points=[];autosize=1;strokeColor=none;fillColor=none;" vertex="1" parent="1">
          <mxGeometry x="170" y="1130" width="120" height="40" as="geometry" />
        </mxCell>
        <mxCell id="-w7tROycFm1QyogT2TyT-70" value="" style="edgeStyle=orthogonalEdgeStyle;rounded=0;orthogonalLoop=1;jettySize=auto;html=1;entryX=0.5;entryY=0;entryDx=0;entryDy=0;" edge="1" parent="1" source="-w7tROycFm1QyogT2TyT-71" target="-w7tROycFm1QyogT2TyT-59">
          <mxGeometry relative="1" as="geometry">
            <mxPoint x="170" y="1010" as="targetPoint" />
          </mxGeometry>
        </mxCell>
        <mxCell id="-w7tROycFm1QyogT2TyT-71" value="&lt;font style=&quot;font-size: 18px;&quot;&gt;OOC&lt;/font&gt;" style="text;html=1;align=center;verticalAlign=middle;resizable=0;points=[];autosize=1;strokeColor=none;fillColor=none;" vertex="1" parent="1">
          <mxGeometry x="160" y="960" width="60" height="40" as="geometry" />
        </mxCell>
        <mxCell id="-w7tROycFm1QyogT2TyT-72" value="&lt;font style=&quot;font-size: 18px;&quot;&gt;Page-Base-Adress&lt;/font&gt;" style="rounded=0;whiteSpace=wrap;html=1;" vertex="1" parent="1">
          <mxGeometry x="450" y="1270" width="240" height="40" as="geometry" />
        </mxCell>
        <mxCell id="-w7tROycFm1QyogT2TyT-73" value="&lt;font style=&quot;font-size: 18px;&quot;&gt;TimeUsed&lt;/font&gt;" style="rounded=0;whiteSpace=wrap;html=1;" vertex="1" parent="1">
          <mxGeometry x="290" y="1270" width="160" height="40" as="geometry" />
        </mxCell>
        <mxCell id="-w7tROycFm1QyogT2TyT-74" value="" style="rounded=0;whiteSpace=wrap;html=1;" vertex="1" parent="1">
          <mxGeometry x="250" y="1270" width="40" height="40" as="geometry" />
        </mxCell>
        <mxCell id="-w7tROycFm1QyogT2TyT-75" value="" style="rounded=0;whiteSpace=wrap;html=1;" vertex="1" parent="1">
          <mxGeometry x="170" y="1270" width="40" height="40" as="geometry" />
        </mxCell>
        <mxCell id="-w7tROycFm1QyogT2TyT-76" value="" style="rounded=0;whiteSpace=wrap;html=1;" vertex="1" parent="1">
          <mxGeometry x="210" y="1270" width="40" height="40" as="geometry" />
        </mxCell>
        <mxCell id="-w7tROycFm1QyogT2TyT-77" value="&lt;font style=&quot;font-size: 24px;&quot;&gt;0&lt;/font&gt;" style="text;html=1;align=center;verticalAlign=middle;whiteSpace=wrap;rounded=0;" vertex="1" parent="1">
          <mxGeometry x="650" y="1310" width="60" height="30" as="geometry" />
        </mxCell>
        <mxCell id="-w7tROycFm1QyogT2TyT-78" value="&lt;font style=&quot;font-size: 24px;&quot;&gt;24&lt;/font&gt;" style="text;html=1;align=center;verticalAlign=middle;whiteSpace=wrap;rounded=0;" vertex="1" parent="1">
          <mxGeometry x="400" y="1310" width="60" height="30" as="geometry" />
        </mxCell>
        <mxCell id="-w7tROycFm1QyogT2TyT-79" value="&lt;font style=&quot;font-size: 24px;&quot;&gt;29&lt;/font&gt;" style="text;html=1;align=center;verticalAlign=middle;whiteSpace=wrap;rounded=0;" vertex="1" parent="1">
          <mxGeometry x="240" y="1310" width="60" height="30" as="geometry" />
        </mxCell>
        <mxCell id="-w7tROycFm1QyogT2TyT-80" value="&lt;font style=&quot;font-size: 24px;&quot;&gt;30&lt;/font&gt;" style="text;html=1;align=center;verticalAlign=middle;whiteSpace=wrap;rounded=0;" vertex="1" parent="1">
          <mxGeometry x="200" y="1310" width="60" height="30" as="geometry" />
        </mxCell>
        <mxCell id="-w7tROycFm1QyogT2TyT-81" value="&lt;div&gt;&lt;font style=&quot;font-size: 24px;&quot;&gt;31&lt;/font&gt;&lt;/div&gt;" style="text;html=1;align=center;verticalAlign=middle;whiteSpace=wrap;rounded=0;" vertex="1" parent="1">
          <mxGeometry x="160" y="1310" width="60" height="30" as="geometry" />
        </mxCell>
        <mxCell id="-w7tROycFm1QyogT2TyT-82" value="" style="edgeStyle=orthogonalEdgeStyle;rounded=0;orthogonalLoop=1;jettySize=auto;html=1;entryX=0.5;entryY=0;entryDx=0;entryDy=0;" edge="1" parent="1" source="-w7tROycFm1QyogT2TyT-83" target="-w7tROycFm1QyogT2TyT-74">
          <mxGeometry relative="1" as="geometry">
            <mxPoint x="330" y="1250" as="targetPoint" />
          </mxGeometry>
        </mxCell>
        <mxCell id="-w7tROycFm1QyogT2TyT-83" value="&lt;font style=&quot;font-size: 18px;&quot;&gt;WasRead&lt;/font&gt;" style="text;html=1;align=center;verticalAlign=middle;resizable=0;points=[];autosize=1;strokeColor=none;fillColor=none;" vertex="1" parent="1">
          <mxGeometry x="220" y="1200" width="100" height="40" as="geometry" />
        </mxCell>
        <mxCell id="-w7tROycFm1QyogT2TyT-84" value="" style="edgeStyle=orthogonalEdgeStyle;rounded=0;orthogonalLoop=1;jettySize=auto;html=1;entryX=0.5;entryY=1;entryDx=0;entryDy=0;" edge="1" parent="1" source="-w7tROycFm1QyogT2TyT-85" target="-w7tROycFm1QyogT2TyT-80">
          <mxGeometry relative="1" as="geometry" />
        </mxCell>
        <mxCell id="-w7tROycFm1QyogT2TyT-85" value="&lt;font style=&quot;font-size: 18px;&quot;&gt;Requested&lt;/font&gt;" style="text;html=1;align=center;verticalAlign=middle;resizable=0;points=[];autosize=1;strokeColor=none;fillColor=none;" vertex="1" parent="1">
          <mxGeometry x="170" y="1370" width="120" height="40" as="geometry" />
        </mxCell>
        <mxCell id="-w7tROycFm1QyogT2TyT-86" value="" style="edgeStyle=orthogonalEdgeStyle;rounded=0;orthogonalLoop=1;jettySize=auto;html=1;entryX=0.5;entryY=0;entryDx=0;entryDy=0;" edge="1" parent="1" source="-w7tROycFm1QyogT2TyT-87" target="-w7tROycFm1QyogT2TyT-75">
          <mxGeometry relative="1" as="geometry">
            <mxPoint x="170" y="1250" as="targetPoint" />
          </mxGeometry>
        </mxCell>
        <mxCell id="-w7tROycFm1QyogT2TyT-87" value="&lt;font style=&quot;font-size: 18px;&quot;&gt;OOC&lt;/font&gt;" style="text;html=1;align=center;verticalAlign=middle;resizable=0;points=[];autosize=1;strokeColor=none;fillColor=none;" vertex="1" parent="1">
          <mxGeometry x="160" y="1200" width="60" height="40" as="geometry" />
        </mxCell>
      </root>
    </mxGraphModel>
  </diagram>
</mxfile>
